HIERARCHY
ROOT root
{
	OFFSET	0	13.1	24.9
	CHANNELS 6  Xposition Yposition Zposition Xrotation Yrotation Zrotation
	JOINT spine_1
	{
		OFFSET	0	9.99999	0
		CHANNELS 3  Xrotation Yrotation Zrotation
		JOINT spine_2
		{
			OFFSET	0	112	-10
			CHANNELS 3  Xrotation Yrotation Zrotation
			JOINT spine_3
			{
				OFFSET	0	206.5	19.3
				CHANNELS 3  Xrotation Yrotation Zrotation
				JOINT spine_4
				{
					OFFSET	0	110.4	14.6
					CHANNELS 3  Xrotation Yrotation Zrotation
					JOINT neck_1
					{
						OFFSET	0	71.8	-50.3
						CHANNELS 3  Xrotation Yrotation Zrotation
						JOINT neck_2
						{
							OFFSET	0	86.2	-25.8
							CHANNELS 3  Xrotation Yrotation Zrotation
							JOINT head_ee
							{
								OFFSET	0	179.8	-8.7
								CHANNELS 3  Xrotation Yrotation Zrotation
								End Site
								{
									OFFSET	1	0	0
								}
							}
						}
					}
					JOINT left_clavicle
					{
						OFFSET	-43.2	22.4	-70.8
						CHANNELS 3  Xrotation Yrotation Zrotation
						JOINT left_shoulder
						{
							OFFSET	-93.9	-5.79999	48.7
							CHANNELS 3  Xrotation Yrotation Zrotation
							JOINT left_elbow
							{
								OFFSET	-291.4	-30.8	15.2
								CHANNELS 3  Xrotation Yrotation Zrotation
								JOINT left_lowarm_twist
								{
									OFFSET	-110.7	-3.89999	13.6
									CHANNELS 3  Xrotation Yrotation Zrotation
									JOINT left_hand
									{
										OFFSET	-110.7	-3.89999	13.6
										CHANNELS 3  Xrotation Yrotation Zrotation
										JOINT left_ee
										{
											OFFSET	-80.8	-5.10001	12.1
											CHANNELS 3  Xrotation Yrotation Zrotation
											End Site
											{
												OFFSET	1	0	0
											}
										}
									}
								}
							}
						}
					}
					JOINT right_clavicle
					{
						OFFSET	43.2	22.4	-70.8
						CHANNELS 3  Xrotation Yrotation Zrotation
						JOINT right_shoulder
						{
							OFFSET	93.9	-5.79999	48.7
							CHANNELS 3  Xrotation Yrotation Zrotation
							JOINT right_elbow
							{
								OFFSET	291.4	-30.8	15.2
								CHANNELS 3  Xrotation Yrotation Zrotation
								JOINT right_lowarm_twist
								{
									OFFSET	110.7	-3.89999	13.6
									CHANNELS 3  Xrotation Yrotation Zrotation
									JOINT right_hand
									{
										OFFSET	110.7	-3.89999	13.6
										CHANNELS 3  Xrotation Yrotation Zrotation
										JOINT right_ee
										{
											OFFSET	80.8	-5.10001	12.1
											CHANNELS 3  Xrotation Yrotation Zrotation
											End Site
											{
												OFFSET	1	0	0
											}
										}
									}
								}
							}
						}
					}
				}
			}
		}
	}
	JOINT left_hip
	{
		OFFSET	-82.8	-127.5	0.300001
		CHANNELS 3  Xrotation Yrotation Zrotation
		JOINT left_knee
		{
			OFFSET	-28.2	-396.7	2.2
			CHANNELS 3  Xrotation Yrotation Zrotation
			JOINT left_ankle
			{
				OFFSET	-11.7	-411.3	35.4
				CHANNELS 3  Xrotation Yrotation Zrotation
				JOINT left_toes
				{
					OFFSET	0	-60	-88.6
					CHANNELS 3  Xrotation Yrotation Zrotation
					JOINT left_foot_ee
					{
						OFFSET	-22.5	-16.5	-42.2
						CHANNELS 3  Xrotation Yrotation Zrotation
						End Site
						{
							OFFSET	1	0	0
						}
					}
				}
			}
		}
	}
	JOINT right_hip
	{
		OFFSET	82.8	-127.5	0.300001
		CHANNELS 3  Xrotation Yrotation Zrotation
		JOINT right_knee
		{
			OFFSET	28.2	-396.7	2.2
			CHANNELS 3  Xrotation Yrotation Zrotation
			JOINT right_ankle
			{
				OFFSET	11.7	-411.3	35.4
				CHANNELS 3  Xrotation Yrotation Zrotation
				JOINT right_toes
				{
					OFFSET	0	-60	-88.6
					CHANNELS 3  Xrotation Yrotation Zrotation
					JOINT right_foot_ee
					{
						OFFSET	22.5	-16.5	-42.2
						CHANNELS 3  Xrotation Yrotation Zrotation
						End Site
						{
							OFFSET	1	0	0
						}
					}
				}
			}
		}
	}
}
MOTION
Frames: 6
Frame Time: 0.02
1372.05 701.618 -1475.22 -14.4175268431 18.8566823748 0.738033395343 4.95342 0.307147 1.26013 4.95428 0.226346 1.27711 4.95859 0.0651122 1.29538 4.95635 0.268859 1.26885 -5.04086 16.768 5.24846 -4.84354 27.0018 8.22655 -0.0 0.0 -0.0 3.83097 12.362 7.86483 -18.5902 -36.4999 50.0217 4.14911 -64.0363 2.59517 64.3562 -2.17672 -7.49476 3.51566 -15.0266 17.4384 -0.0 0.0 -0.0 8.84325 -10.7716 -16.6503 -43.818 16.1414 -48.948 0.45695 12.7547 -0.0510726 35.086 0.118643 4.41119 0.161891 0.353322 -0.933099 0.0 0.0 0.0 -6.00279 4.93363 13.3533 -4.83443 0.168641 0.722556 37.7835 -27.0019 -5.50187 40.03 -0.0 -0.0 -0.0 0.0 -0.0 52.3152 -19.8614 4.79571 -11.9002 -0.304215 -1.79767 -13.9493 25.3948 -2.52374 16.6766 -0.0 -0.0 0.0 0.0 0.0 
1367.87152313 701.906 -1497.75774514 -14.5623693881 20.5049574723 1.7042387358 4.66116 0.255387 1.18657 4.66192 0.17937 1.20042 4.66509 0.0218531 1.21354 4.6631 0.213222 1.19487 -5.05292 16.7733 5.26483 -4.85611 27.0023 8.24646 -0.0 0.0 -0.0 3.65511 12.0483 7.55987 -19.6701 -35.9329 50.4129 3.86457 -62.4021 2.34112 63.9721 -2.14003 -7.46189 3.43469 -14.5836 17.0898 -0.0 0.0 -0.0 9.13579 -10.8375 -17.1765 -43.9691 16.1497 -49.7953 0.450217 12.5728 -0.0495964 35.0747 0.118168 4.40982 0.106505 -0.554715 -0.943815 0.0 0.0 0.0 -6.52421 4.18604 13.3352 -5.09395 0.175962 0.761711 37.9179 -27.4161 -5.54043 40.1249 -0.0 -0.0 -0.0 0.0 -0.0 51.517 -20.443 4.60891 -14.4397 -0.320424 -2.18693 -14.8332 24.1313 -2.64692 16.549 -0.0 -0.0 0.0 0.0 0.0 
1360.34785713 700.556 -1528.17446082 -15.4081317927 22.3448069127 2.40328043472 4.54759 0.262941 1.05225 4.54819 0.195455 1.06685 4.55139 0.0530119 1.08331 4.54982 0.223425 1.06134 -5.55782 16.6277 5.16931 -5.40099 26.9231 8.23169 -0.0 0.0 -0.0 3.10159 11.7757 6.61445 -21.3198 -35.3399 50.2238 3.58843 -60.6245 2.09839 63.8333 -2.12683 -7.44995 3.33328 -13.9673 16.6804 -0.0 0.0 -0.0 9.59008 -10.6493 -18.0276 -43.4148 16.4303 -50.513 0.455991 12.7288 -0.0508611 35.1093 0.119614 4.414 0.0944711 -1.21534 -1.14016 0.0 0.0 0.0 -8.32122 3.38456 12.4533 -6.67343 0.216683 1.00068 38.0154 -27.6982 -5.56761 40.232 -0.0 -0.0 -0.0 0.0 -0.0 50.9087 -20.8158 4.52838 -17.0301 -0.319173 -2.58433 -16.077 23.3191 -2.84589 16.1795 -0.0 -0.0 0.0 0.0 0.0 
1349.30191006 705.353 -1550.51156027 -14.3260057402 23.9539081712 2.3063203151 4.3842 0.274238 1.02509 4.38476 0.208457 1.04046 4.38816 0.0663665 1.05906 4.38667 0.232783 1.03529 -5.59885 16.6124 4.97869 -5.44842 27.0454 8.04711 -0.0 0.0 -0.0 2.52749 11.6291 5.63644 -23.4272 -34.6626 49.5687 3.29482 -58.4914 1.84521 63.7313 -2.11714 -7.44115 3.23587 -13.3024 16.3187 -0.0 0.0 -0.0 9.81111 -10.4926 -18.4525 -43.2917 16.591 -50.7649 0.440025 12.2969 -0.0474018 35.0772 0.118272 4.41012 0.0676551 -1.71258 -1.16972 0.0 0.0 0.0 -8.88622 2.99861 11.5931 -7.7863 0.241409 1.16966 37.7193 -27.8405 -5.54668 40.1525 -0.0 -0.0 -0.0 0.0 -0.0 50.1465 -21.1115 4.43436 -18.9429 -0.306719 -2.87754 -17.1574 22.716 -3.01946 15.8081 -0.0 -0.0 0.0 0.0 0.0 
1318.90720141 711.251 -1587.67730791 -14.7168361446 27.5444347576 3.79573108511 4.63643 0.343327 0.713778 4.63667 0.297212 0.734177 4.64029 0.198963 0.766656 4.63961 0.317542 0.725616 -4.45931 16.3537 1.94458 -4.23288 28.5843 4.67797 -0.0 0.0 -0.0 2.54592 11.5625 5.66387 -27.2485 -33.3968 51.0743 2.7668 -53.8752 1.40616 61.8265 -1.93921 -7.27382 2.95986 -11.7172 15.1369 -0.0 0.0 -0.0 10.4676 -9.71227 -19.771 -42.3695 16.9367 -49.7405 0.412439 11.5474 -0.0417029 36.3082 0.171294 4.55829 -0.0025851 -2.45068 -1.01218 0.0 0.0 0.0 -9.45419 2.16156 10.4782 -12.6047 0.310441 1.90558 37.4929 -28.6221 -5.57329 40.1863 -0.0 -0.0 -0.0 0.0 -0.0 48.1702 -21.1057 5.59276 -23.6924 -0.233557 -3.60245 -18.3462 25.1828 -3.32105 15.2973 -0.0 -0.0 0.0 0.0 0.0 
1320.19825374 711.251 -1588.27839002 -14.6313295594 26.9098150186 3.60884218046 4.63643 0.343327 0.713778 4.63667 0.297212 0.734177 4.64029 0.198963 0.766656 4.63961 0.317542 0.725616 -4.45931 16.3537 1.94458 -4.23288 28.5843 4.67797 -0.0 0.0 -0.0 2.54592 11.5625 5.66387 -27.2485 -33.3968 51.0743 2.7668 -53.8752 1.40616 61.8265 -1.93921 -7.27382 2.95986 -11.7172 15.1369 -0.0 0.0 -0.0 10.4676 -9.71227 -19.771 -42.3695 16.9367 -49.7405 0.412439 11.5474 -0.0417029 36.3082 0.171294 4.55829 -0.0025851 -2.45068 -1.01218 0.0 0.0 0.0 -9.45419 2.16156 10.4782 -12.6047 0.310441 1.90558 37.4929 -28.6221 -5.57329 40.1863 -0.0 -0.0 -0.0 0.0 -0.0 48.1702 -21.1057 5.59276 -23.6924 -0.233557 -3.60245 -18.3462 25.1828 -3.32105 15.2973 -0.0 -0.0 0.0 0.0 0.0 
